<svg width="640" height="640" viewBox="0 0 640 640" fill="none" xmlns="http://www.w3.org/2000/svg">
  <rect width="640" height="640" rx="40" fill="#060B18"/>
  <circle cx="320" cy="320" r="280" fill="#1e3a8a" opacity="0.15"/>
  <circle cx="320" cy="320" r="180" fill="#3b82f6" opacity="0.1"/>
  <circle cx="320" cy="320" r="280" stroke="#3b82f6" stroke-width="4" opacity="0.8"/>
  <circle cx="320" cy="320" r="272" stroke="#76E4FF" stroke-width="2" opacity="0.6"/>
  <circle cx="320" cy="320" r="260" stroke="#93c5fd" stroke-width="6" opacity="0.9"/>
  <line x1="520.0" y1="320.0" x2="580.0" y2="320.0" stroke="#93c5fd" stroke-width="4" opacity="0.7"/>
  <line x1="493.20508075688775" y1="420.0" x2="545.1666049839541" y2="450.0" stroke="#93c5fd" stroke-width="4" opacity="0.7"/>
  <line x1="420.0" y1="493.2050807568877" x2="450.0" y2="545.166604983954" stroke="#93c5fd" stroke-width="4" opacity="0.7"/>
  <line x1="320.0" y1="520.0" x2="320.0" y2="580.0" stroke="#93c5fd" stroke-width="4" opacity="0.7"/>
  <line x1="220.00000000000006" y1="493.20508075688775" x2="190.00000000000006" y2="545.1666049839541" stroke="#93c5fd" stroke-width="4" opacity="0.7"/>
  <line x1="146.79491924311225" y1="420.0" x2="94.83339501604593" y2="450.0" stroke="#93c5fd" stroke-width="4" opacity="0.7"/>
  <line x1="120.0" y1="320.0" x2="60.0" y2="320.00000000000006" stroke="#93c5fd" stroke-width="4" opacity="0.7"/>
  <line x1="146.79491924311228" y1="219.99999999999997" x2="94.83339501604596" y2="189.99999999999997" stroke="#93c5fd" stroke-width="4" opacity="0.7"/>
  <line x1="219.99999999999991" y1="146.7949192431123" x2="189.9999999999999" y2="94.83339501604598" stroke="#93c5fd" stroke-width="4" opacity="0.7"/>
  <line x1="319.99999999999994" y1="120.0" x2="319.99999999999994" y2="60.0" stroke="#93c5fd" stroke-width="4" opacity="0.7"/>
  <line x1="420.0" y1="146.79491924311228" x2="450.0" y2="94.83339501604596" stroke="#93c5fd" stroke-width="4" opacity="0.7"/>
  <line x1="493.2050807568877" y1="219.99999999999991" x2="545.166604983954" y2="189.9999999999999" stroke="#93c5fd" stroke-width="4" opacity="0.7"/>
  <circle cx="320" cy="320" r="200" stroke="#60a5fa" stroke-width="8" opacity="0.9"/>
  <circle cx="320" cy="320" r="192" stroke="#76E4FF" stroke-width="2" opacity="0.5"/>
  <path d="M 370.0 320.0 Q 434.64037869507274 355.46242479936075 512.8103601975282 349.14043583235184 L 514.7563007770184 329.7459380077823 Z" fill="#60a5fa" opacity="0.4" stroke="#93c5fd" stroke-width="1"/>
  <path d="M 370.0 320.0 Q 434.64037869507274 355.46242479936075 512.8103601975282 349.14043583235184" fill="none" stroke="#bfdbfe" stroke-width="1.5" opacity="0.8"/>
  <path d="M 369.2403876506104 328.6824088833465 Q 426.74074830510364 374.830763730469 504.82095400489425 382.1788948174601 L 510.10515057847897 363.4169520295222 Z" fill="#60a5fa" opacity="0.4" stroke="#93c5fd" stroke-width="1"/>
  <path d="M 369.2403876506104 328.6824088833465 Q 426.74074830510364 374.830763730469 504.82095400489425 382.1788948174601" fill="none" stroke="#bfdbfe" stroke-width="1.5" opacity="0.8"/>
  <path d="M 366.98463103929544 337.1010071662834 Q 415.5978542913088 392.53309765133224 491.2158566487369 413.3280795475787 L 499.6777515774603 395.7687639338828 Z" fill="#60a5fa" opacity="0.4" stroke="#93c5fd" stroke-width="1"/>
  <path d="M 366.98463103929544 337.1010071662834 Q 415.5978542913088 392.53309765133224 491.2158566487369 413.3280795475787" fill="none" stroke="#bfdbfe" stroke-width="1.5" opacity="0.8"/>
  <path d="M 363.30127018922195 345.0 Q 401.55026784972097 408.031550103578 472.40845212771154 441.6415378069312 L 483.79093501608986 425.81838028695694 Z" fill="#60a5fa" opacity="0.4" stroke="#93c5fd" stroke-width="1"/>
  <path d="M 363.30127018922195 345.0 Q 401.55026784972097 408.031550103578 472.40845212771154 441.6415378069312" fill="none" stroke="#bfdbfe" stroke-width="1.5" opacity="0.8"/>
  <path d="M 358.3022221559489 352.139380484327 Q 385.02481778594597 420.8552084520404 448.9701939111836 466.25897949360814 L 462.9274137764677 452.65275870169603 Z" fill="#60a5fa" opacity="0.4" stroke="#93c5fd" stroke-width="1"/>
  <path d="M 358.3022221559489 352.139380484327 Q 385.02481778594597 420.8552084520404 448.9701939111836 466.25897949360814" fill="none" stroke="#bfdbfe" stroke-width="1.5" opacity="0.8"/>
  <path d="M 352.139380484327 358.3022221559489 Q 366.52362153789056 430.6144323268855 421.6132416147316 486.43241609898655 L 437.72111539400873 475.4565501688188 Z" fill="#60a5fa" opacity="0.4" stroke="#93c5fd" stroke-width="1"/>
  <path d="M 352.139380484327 358.3022221559489 Q 366.52362153789056 430.6144323268855 421.6132416147316 486.43241609898655" fill="none" stroke="#bfdbfe" stroke-width="1.5" opacity="0.8"/>
  <path d="M 345.0 363.30127018922195 Q 346.60882859149467 437.0126926490817 391.16882239059714 501.5488879600634 L 408.93792049006146 493.5368730238721 Z" fill="#60a5fa" opacity="0.4" stroke="#93c5fd" stroke-width="1"/>
  <path d="M 345.0 363.30127018922195 Q 346.60882859149467 437.0126926490817 391.16882239059714 501.5488879600634" fill="none" stroke="#bfdbfe" stroke-width="1.5" opacity="0.8"/>
  <path d="M 337.10100716628347 366.98463103929544 Q 325.8855398530632 439.855581516415 358.56197451128617 511.14908872864373 L 377.452391876783 506.3443658059898 Z" fill="#60a5fa" opacity="0.4" stroke="#93c5fd" stroke-width="1"/>
  <path d="M 337.10100716628347 366.98463103929544 Q 325.8855398530632 439.855581516415 358.56197451128617 511.14908872864373" fill="none" stroke="#bfdbfe" stroke-width="1.5" opacity="0.8"/>
  <path d="M 328.6824088833465 369.2403876506104 Q 304.9834219644233 439.05671918922275 324.7834405497504 514.9413211623103 L 344.2212014086415 513.4898793278915 Z" fill="#60a5fa" opacity="0.4" stroke="#93c5fd" stroke-width="1"/>
  <path d="M 328.6824088833465 369.2403876506104 Q 304.9834219644233 439.05671918922275 324.7834405497504 514.9413211623103" fill="none" stroke="#bfdbfe" stroke-width="1.5" opacity="0.8"/>
  <path d="M 320.0 370.0 Q 284.53757520063925 434.64037869507274 290.85956416764816 512.8103601975283 L 310.2540619922177 514.7563007770184 Z" fill="#60a5fa" opacity="0.4" stroke="#93c5fd" stroke-width="1"/>
  <path d="M 320.0 370.0 Q 284.53757520063925 434.64037869507274 290.85956416764816 512.8103601975283" fill="none" stroke="#bfdbfe" stroke-width="1.5" opacity="0.8"/>
  <path d="M 311.3175911166535 369.2403876506104 Q 265.169236269531 426.74074830510364 257.82110518253995 504.82095400489425 L 276.5830479704778 510.10515057847897 Z" fill="#60a5fa" opacity="0.4" stroke="#93c5fd" stroke-width="1"/>
  <path d="M 311.3175911166535 369.2403876506104 Q 265.169236269531 426.74074830510364 257.82110518253995 504.82095400489425" fill="none" stroke="#bfdbfe" stroke-width="1.5" opacity="0.8"/>
  <path d="M 302.8989928337166 366.98463103929544 Q 247.46690234866782 415.5978542913088 226.6719204524213 491.2158566487369 L 244.2312360661172 499.6777515774603 Z" fill="#60a5fa" opacity="0.4" stroke="#93c5fd" stroke-width="1"/>
  <path d="M 302.8989928337166 366.98463103929544 Q 247.46690234866782 415.5978542913088 226.6719204524213 491.2158566487369" fill="none" stroke="#bfdbfe" stroke-width="1.5" opacity="0.8"/>
  <path d="M 295.0 363.30127018922195 Q 231.968449896422 401.55026784972097 198.35846219306887 472.4084521277116 L 214.18161971304312 483.79093501608986 Z" fill="#60a5fa" opacity="0.4" stroke="#93c5fd" stroke-width="1"/>
  <path d="M 295.0 363.30127018922195 Q 231.968449896422 401.55026784972097 198.35846219306887 472.4084521277116" fill="none" stroke="#bfdbfe" stroke-width="1.5" opacity="0.8"/>
  <path d="M 287.860619515673 358.3022221559489 Q 219.14479154795958 385.024817785946 173.74102050639186 448.9701939111837 L 187.347241298304 462.9274137764677 Z" fill="#60a5fa" opacity="0.4" stroke="#93c5fd" stroke-width="1"/>
  <path d="M 287.860619515673 358.3022221559489 Q 219.14479154795958 385.024817785946 173.74102050639186 448.9701939111837" fill="none" stroke="#bfdbfe" stroke-width="1.5" opacity="0.8"/>
  <path d="M 281.6977778440511 352.139380484327 Q 209.3855676731145 366.52362153789056 153.5675839010135 421.6132416147316 L 164.54344983118122 437.72111539400873 Z" fill="#60a5fa" opacity="0.4" stroke="#93c5fd" stroke-width="1"/>
  <path d="M 281.6977778440511 352.139380484327 Q 209.3855676731145 366.52362153789056 153.5675839010135 421.6132416147316" fill="none" stroke="#bfdbfe" stroke-width="1.5" opacity="0.8"/>
  <path d="M 276.69872981077805 345.0 Q 202.98730735091831 346.60882859149467 138.45111203993662 391.1688223905971 L 146.4631269761279 408.93792049006146 Z" fill="#60a5fa" opacity="0.4" stroke="#93c5fd" stroke-width="1"/>
  <path d="M 276.69872981077805 345.0 Q 202.98730735091831 346.60882859149467 138.45111203993662 391.1688223905971" fill="none" stroke="#bfdbfe" stroke-width="1.5" opacity="0.8"/>
  <path d="M 273.01536896070456 337.10100716628347 Q 200.14441848358499 325.8855398530633 128.85091127135627 358.56197451128617 L 133.65563419401016 377.45239187678305 Z" fill="#60a5fa" opacity="0.4" stroke="#93c5fd" stroke-width="1"/>
  <path d="M 273.01536896070456 337.10100716628347 Q 200.14441848358499 325.8855398530633 128.85091127135627 358.56197451128617" fill="none" stroke="#bfdbfe" stroke-width="1.5" opacity="0.8"/>
  <path d="M 270.7596123493896 328.6824088833465 Q 200.94328081077725 304.9834219644233 125.05867883768971 324.78344054975037 L 126.51012067210848 344.2212014086415 Z" fill="#60a5fa" opacity="0.4" stroke="#93c5fd" stroke-width="1"/>
  <path d="M 270.7596123493896 328.6824088833465 Q 200.94328081077725 304.9834219644233 125.05867883768971 324.78344054975037" fill="none" stroke="#bfdbfe" stroke-width="1.5" opacity="0.8"/>
  <path d="M 270.0 320.0 Q 205.35962130492726 284.5375752006393 127.18963980247173 290.8595641676482 L 125.24369922298158 310.25406199221777 Z" fill="#60a5fa" opacity="0.4" stroke="#93c5fd" stroke-width="1"/>
  <path d="M 270.0 320.0 Q 205.35962130492726 284.5375752006393 127.18963980247173 290.8595641676482" fill="none" stroke="#bfdbfe" stroke-width="1.5" opacity="0.8"/>
  <path d="M 270.7596123493896 311.3175911166535 Q 213.25925169489636 265.169236269531 135.17904599510575 257.8211051825399 L 129.894849421521 276.5830479704779 Z" fill="#60a5fa" opacity="0.4" stroke="#93c5fd" stroke-width="1"/>
  <path d="M 270.7596123493896 311.3175911166535 Q 213.25925169489636 265.169236269531 135.17904599510575 257.8211051825399" fill="none" stroke="#bfdbfe" stroke-width="1.5" opacity="0.8"/>
  <path d="M 273.01536896070456 302.8989928337166 Q 224.4021457086912 247.46690234866782 148.78414335126308 226.67192045242132 L 140.32224842253967 244.23123606611725 Z" fill="#60a5fa" opacity="0.4" stroke="#93c5fd" stroke-width="1"/>
  <path d="M 273.01536896070456 302.8989928337166 Q 224.4021457086912 247.46690234866782 148.78414335126308 226.67192045242132" fill="none" stroke="#bfdbfe" stroke-width="1.5" opacity="0.8"/>
  <path d="M 276.69872981077805 295.0 Q 238.44973215027906 231.96844989642196 167.5915478722885 198.35846219306882 L 156.20906498391017 214.18161971304306 Z" fill="#60a5fa" opacity="0.4" stroke="#93c5fd" stroke-width="1"/>
  <path d="M 276.69872981077805 295.0 Q 238.44973215027906 231.96844989642196 167.5915478722885 198.35846219306882" fill="none" stroke="#bfdbfe" stroke-width="1.5" opacity="0.8"/>
  <path d="M 281.6977778440511 287.860619515673 Q 254.97518221405397 219.1447915479596 191.02980608881631 173.7410205063919 L 177.07258622353228 187.347241298304 Z" fill="#60a5fa" opacity="0.4" stroke="#93c5fd" stroke-width="1"/>
  <path d="M 281.6977778440511 287.860619515673 Q 254.97518221405397 219.1447915479596 191.02980608881631 173.7410205063919" fill="none" stroke="#bfdbfe" stroke-width="1.5" opacity="0.8"/>
  <path d="M 287.860619515673 281.6977778440511 Q 273.47637846210944 209.3855676731145 218.38675838526845 153.56758390101348 L 202.2788846059912 164.54344983118122 Z" fill="#60a5fa" opacity="0.4" stroke="#93c5fd" stroke-width="1"/>
  <path d="M 287.860619515673 281.6977778440511 Q 273.47637846210944 209.3855676731145 218.38675838526845 153.56758390101348" fill="none" stroke="#bfdbfe" stroke-width="1.5" opacity="0.8"/>
  <path d="M 295.0 276.6987298107781 Q 293.3911714085053 202.98730735091834 248.8311776094029 138.45111203993662 L 231.06207950993843 146.46312697612797 Z" fill="#60a5fa" opacity="0.4" stroke="#93c5fd" stroke-width="1"/>
  <path d="M 295.0 276.6987298107781 Q 293.3911714085053 202.98730735091834 248.8311776094029 138.45111203993662" fill="none" stroke="#bfdbfe" stroke-width="1.5" opacity="0.8"/>
  <path d="M 302.8989928337166 273.01536896070456 Q 314.1144601469368 200.14441848358499 281.438025488714 128.85091127135624 L 262.54760812321706 133.65563419401013 Z" fill="#60a5fa" opacity="0.4" stroke="#93c5fd" stroke-width="1"/>
  <path d="M 302.8989928337166 273.01536896070456 Q 314.1144601469368 200.14441848358499 281.438025488714 128.85091127135624" fill="none" stroke="#bfdbfe" stroke-width="1.5" opacity="0.8"/>
  <path d="M 311.3175911166535 270.7596123493896 Q 335.0165780355767 200.94328081077725 315.2165594502497 125.05867883768971 L 295.7787985913585 126.51012067210848 Z" fill="#60a5fa" opacity="0.4" stroke="#93c5fd" stroke-width="1"/>
  <path d="M 311.3175911166535 270.7596123493896 Q 335.0165780355767 200.94328081077725 315.2165594502497 125.05867883768971" fill="none" stroke="#bfdbfe" stroke-width="1.5" opacity="0.8"/>
  <path d="M 320.0 270.0 Q 355.4624247993607 205.35962130492726 349.1404358323519 127.18963980247176 L 329.74593800778223 125.24369922298158 Z" fill="#60a5fa" opacity="0.4" stroke="#93c5fd" stroke-width="1"/>
  <path d="M 320.0 270.0 Q 355.4624247993607 205.35962130492726 349.1404358323519 127.18963980247176" fill="none" stroke="#bfdbfe" stroke-width="1.5" opacity="0.8"/>
  <path d="M 328.6824088833465 270.7596123493896 Q 374.83076373046896 213.25925169489636 382.1788948174601 135.17904599510575 L 363.41695202952207 129.89484942152097 Z" fill="#60a5fa" opacity="0.4" stroke="#93c5fd" stroke-width="1"/>
  <path d="M 328.6824088833465 270.7596123493896 Q 374.83076373046896 213.25925169489636 382.1788948174601 135.17904599510575" fill="none" stroke="#bfdbfe" stroke-width="1.5" opacity="0.8"/>
  <path d="M 337.10100716628347 273.01536896070456 Q 392.53309765133224 224.40214570869122 413.32807954757885 148.78414335126317 L 395.76876393388284 140.3222484225397 Z" fill="#60a5fa" opacity="0.4" stroke="#93c5fd" stroke-width="1"/>
  <path d="M 337.10100716628347 273.01536896070456 Q 392.53309765133224 224.40214570869122 413.32807954757885 148.78414335126317" fill="none" stroke="#bfdbfe" stroke-width="1.5" opacity="0.8"/>
  <path d="M 345.0 276.69872981077805 Q 408.031550103578 238.44973215027903 441.6415378069312 167.59154787228854 L 425.81838028695694 156.20906498391017 Z" fill="#60a5fa" opacity="0.4" stroke="#93c5fd" stroke-width="1"/>
  <path d="M 345.0 276.69872981077805 Q 408.031550103578 238.44973215027903 441.6415378069312 167.59154787228854" fill="none" stroke="#bfdbfe" stroke-width="1.5" opacity="0.8"/>
  <path d="M 352.139380484327 281.6977778440511 Q 420.8552084520404 254.97518221405397 466.2589794936082 191.02980608881637 L 452.652758701696 177.07258622353226 Z" fill="#60a5fa" opacity="0.4" stroke="#93c5fd" stroke-width="1"/>
  <path d="M 352.139380484327 281.6977778440511 Q 420.8552084520404 254.97518221405397 466.2589794936082 191.02980608881637" fill="none" stroke="#bfdbfe" stroke-width="1.5" opacity="0.8"/>
  <path d="M 358.30222215594887 287.860619515673 Q 430.61443232688544 273.47637846210944 486.43241609898655 218.38675838526845 L 475.4565501688188 202.2788846059912 Z" fill="#60a5fa" opacity="0.4" stroke="#93c5fd" stroke-width="1"/>
  <path d="M 358.30222215594887 287.860619515673 Q 430.61443232688544 273.47637846210944 486.43241609898655 218.38675838526845" fill="none" stroke="#bfdbfe" stroke-width="1.5" opacity="0.8"/>
  <path d="M 363.3012701892219 295.0 Q 437.01269264908166 293.3911714085052 501.5488879600634 248.83117760940289 L 493.53687302387203 231.06207950993843 Z" fill="#60a5fa" opacity="0.4" stroke="#93c5fd" stroke-width="1"/>
  <path d="M 363.3012701892219 295.0 Q 437.01269264908166 293.3911714085052 501.5488879600634 248.83117760940289" fill="none" stroke="#bfdbfe" stroke-width="1.5" opacity="0.8"/>
  <path d="M 366.98463103929544 302.8989928337166 Q 439.855581516415 314.1144601469368 511.14908872864373 281.43802548871395 L 506.3443658059898 262.547608123217 Z" fill="#60a5fa" opacity="0.4" stroke="#93c5fd" stroke-width="1"/>
  <path d="M 366.98463103929544 302.8989928337166 Q 439.855581516415 314.1144601469368 511.14908872864373 281.43802548871395" fill="none" stroke="#bfdbfe" stroke-width="1.5" opacity="0.8"/>
  <path d="M 369.2403876506104 311.3175911166535 Q 439.05671918922275 335.0165780355767 514.9413211623103 315.2165594502497 L 513.4898793278915 295.77879859135845 Z" fill="#60a5fa" opacity="0.4" stroke="#93c5fd" stroke-width="1"/>
  <path d="M 369.2403876506104 311.3175911166535 Q 439.05671918922275 335.0165780355767 514.9413211623103 315.2165594502497" fill="none" stroke="#bfdbfe" stroke-width="1.5" opacity="0.8"/>
  <circle cx="320" cy="320" r="50" fill="#1e3a8a" stroke="#93c5fd" stroke-width="3"/>
  <circle cx="320" cy="320" r="40" stroke="#76E4FF" stroke-width="1.5" opacity="0.6"/>
  <circle cx="320" cy="320" r="25" stroke="#76E4FF" stroke-width="1" opacity="0.4"/>
  <circle cx="320" cy="320" r="8" fill="#93c5fd"/>
  <path d="M 320 270 A 25 25 0 0 1 360 350" stroke="#60a5fa" stroke-width="2" fill="none" opacity="0.8"/>
  <line x1="320" y1="10" x2="320" y2="630" stroke="#A78BFA" stroke-width="1" stroke-dasharray="10 10" opacity="0.4"/>
  <line x1="10" y1="320" x2="630" y2="320" stroke="#A78BFA" stroke-width="1" stroke-dasharray="10 10" opacity="0.4"/>
  <circle cx="320" cy="320" r="300" stroke="#76E4FF" stroke-width="1" stroke-dasharray="4 8" opacity="0.3"/>
  <text x="30" y="50" fill="#76E4FF" font-family="monospace" font-size="14" opacity="0.8">DIA: Ø 2.4M</text>
  <text x="30" y="70" fill="#76E4FF" font-family="monospace" font-size="14" opacity="0.8">BLADES: 36 Ti-Al</text>
  <text x="500" y="50" fill="#A78BFA" font-family="monospace" font-size="14" opacity="0.8">CFM-56-7B</text>
  <text x="500" y="70" fill="#A78BFA" font-family="monospace" font-size="14" opacity="0.8">BYPASS: 5.4:1</text>
</svg>